<?xml version="1.0" standalone="no"?>
<!DOCTYPE svg PUBLIC "-//W3C//DTD SVG 20010904//EN"
 "http://www.w3.org/TR/2001/REC-SVG-20010904/DTD/svg10.dtd">
<svg version="1.0" xmlns="http://www.w3.org/2000/svg"
 width="512.000000pt" height="512.000000pt" viewBox="0 0 512.000000 512.000000"
 preserveAspectRatio="xMidYMid meet">
<metadata>
Created by potrace 1.14, written by Peter Selinger 2001-2017
</metadata>
<g transform="translate(0.000000,512.000000) scale(0.100000,-0.100000)"
fill="#000000" stroke="none">
<path d="M2310 3897 c-230 -18 -516 -93 -699 -182 -363 -177 -601 -483 -678
-873 -24 -122 -24 -441 0 -568 60 -324 207 -561 469 -755 88 -65 263 -154 389
-198 90 -31 279 -76 364 -86 28 -4 77 -10 110 -15 173 -22 476 -16 693 16 587
86 968 396 1058 862 8 41 14 80 14 88 0 12 -43 14 -265 14 l-264 0 -47 -92
c-64 -124 -190 -253 -309 -315 -103 -54 -218 -92 -325 -109 -85 -13 -469 -13
-535 0 -16 4 -56 11 -89 17 -73 13 -179 51 -271 96 -170 85 -300 211 -370 358
-63 134 -78 197 -80 360 -3 161 6 237 36 327 105 309 382 511 784 572 108 16
449 14 545 -4 292 -54 497 -195 615 -424 l50 -96 263 0 263 0 -7 58 c-37 309
-226 582 -519 749 -135 78 -332 144 -526 177 -154 27 -485 38 -669 23z"/>
</g>
</svg>
