<?xml version="1.0" standalone="no"?>
<!DOCTYPE svg PUBLIC "-//W3C//DTD SVG 20010904//EN"
 "http://www.w3.org/TR/2001/REC-SVG-20010904/DTD/svg10.dtd">
<svg version="1.0" xmlns="http://www.w3.org/2000/svg"
 width="512.000000pt" height="512.000000pt" viewBox="0 0 512.000000 512.000000"
 preserveAspectRatio="xMidYMid meet">
<metadata>
Created by potrace 1.14, written by Peter Selinger 2001-2017
</metadata>
<g transform="translate(0.000000,512.000000) scale(0.100000,-0.100000)"
fill="#000000" stroke="none">
<path d="M3120 3994 c-73 -20 -124 -51 -188 -115 -75 -76 -96 -136 -89 -259 3
-67 14 -126 37 -200 17 -58 36 -129 40 -157 19 -116 -36 -278 -113 -334 -38
-28 -47 -30 -97 -26 -30 3 -84 18 -120 34 -58 24 -77 28 -171 28 -104 0 -107
-1 -190 -42 -180 -90 -293 -234 -429 -548 -29 -66 -60 -138 -70 -160 -49 -110
-73 -209 -75 -315 -3 -129 -7 -141 -180 -494 -128 -263 -178 -376 -171 -384 3
-2 20 14 40 35 41 46 186 187 271 264 33 30 62 57 65 60 3 3 59 48 125 101
149 120 265 236 305 308 18 30 29 45 27 33 -6 -29 7 -29 36 -2 21 20 22 20 25
1 6 -39 -40 -205 -152 -549 -42 -127 -76 -236 -76 -242 0 -6 6 -11 14 -11 20
0 57 91 126 305 60 184 143 399 180 460 9 17 16 35 14 40 -4 13 24 51 32 43 3
-4 1 -16 -6 -27 -15 -29 1 -26 30 4 27 28 40 32 40 10 0 -12 6 -11 33 5 17 10
69 33 115 50 265 101 521 432 611 788 54 212 54 431 1 643 -32 128 -33 139
-20 185 19 67 96 144 170 170 46 16 83 19 220 19 157 -1 172 -3 311 -38 81
-20 153 -37 160 -37 32 1 -34 34 -195 97 -94 37 -180 77 -191 89 -11 12 -38
40 -59 63 -96 100 -284 146 -436 105z"/>
</g>
</svg>
